<svg width="988" height="970" viewBox="0 0 988 970" fill="none" xmlns="http://www.w3.org/2000/svg">
<path d="M399.086 396.459C399.086 382.624 398.842 370.58 398.354 360.326C398.028 349.91 397.54 340.958 396.889 333.471C396.4 325.984 395.668 319.717 394.691 314.672C393.878 309.626 392.982 305.395 392.006 301.977V301H448.402V301.977C447.426 305.395 446.531 309.626 445.717 314.672C444.903 319.717 444.171 325.984 443.52 333.471C442.868 340.958 442.38 349.91 442.055 360.326C441.729 370.58 441.566 382.624 441.566 396.459V525.609C441.566 547.582 439.125 566.625 434.242 582.738C429.522 598.852 422.93 613.093 414.467 625.463C406.166 637.833 396.319 648.9 384.926 658.666C373.695 668.594 361.57 678.197 348.549 687.475L343.91 681.615C355.141 671.361 364.337 660.701 371.498 649.633C378.66 638.565 384.275 626.684 388.344 613.988C392.413 601.456 395.18 587.865 396.645 573.217C398.272 558.731 399.086 542.862 399.086 525.609V396.459ZM393.959 227.025C393.959 223.445 394.61 220.108 395.912 217.016C397.377 213.76 399.249 210.993 401.527 208.715C403.806 206.273 406.492 204.402 409.584 203.1C412.839 201.635 416.339 200.902 420.082 200.902C423.826 200.902 427.243 201.635 430.336 203.1C433.591 204.402 436.358 206.273 438.637 208.715C441.078 210.993 442.95 213.76 444.252 217.016C445.717 220.108 446.449 223.445 446.449 227.025C446.449 234.512 443.926 240.779 438.881 245.824C433.835 250.87 427.569 253.393 420.082 253.393C416.339 253.393 412.839 252.742 409.584 251.439C406.492 249.975 403.806 248.103 401.527 245.824C399.249 243.383 397.377 240.616 395.912 237.523C394.61 234.268 393.959 230.769 393.959 227.025ZM627.602 350.072L624.184 350.561C623.044 346.817 621.173 342.829 618.568 338.598C616.127 334.366 612.872 330.46 608.803 326.879C604.896 323.298 600.095 320.368 594.398 318.09C588.865 315.648 582.436 314.428 575.111 314.428C570.066 314.428 565.264 315.16 560.707 316.625C556.312 318.09 552.406 320.287 548.988 323.217C545.733 325.984 543.129 329.483 541.176 333.715C539.223 337.947 538.246 342.911 538.246 348.607C538.246 356.583 540.688 364.232 545.57 371.557C550.616 378.718 556.882 385.88 564.369 393.041C571.856 400.04 579.913 407.12 588.539 414.281C597.328 421.443 605.466 428.93 612.953 436.742C620.44 444.555 626.625 452.937 631.508 461.889C636.553 470.678 639.076 480.199 639.076 490.453C639.076 498.754 637.611 506.892 634.682 514.867C631.752 522.68 627.195 529.678 621.01 535.863C614.988 542.048 607.175 547.094 597.572 551C588.132 554.743 576.82 556.615 563.637 556.615C555.824 556.615 548.5 555.883 541.664 554.418C534.991 552.953 528.806 551.163 523.109 549.047C517.576 546.768 512.53 544.327 507.973 541.723C503.578 538.956 499.672 536.352 496.254 533.91L498.695 487.523H502.602C504.229 495.173 506.671 502.172 509.926 508.52C513.181 514.867 517.169 520.32 521.889 524.877C526.771 529.271 532.305 532.771 538.49 535.375C544.675 537.816 551.43 539.037 558.754 539.037C570.798 539.037 580.32 535.701 587.318 529.027C594.48 522.354 598.061 513.646 598.061 502.904C598.061 494.278 595.619 486.384 590.736 479.223C586.016 471.898 579.994 464.9 572.67 458.227C565.346 451.553 557.452 444.88 548.988 438.207C540.688 431.534 532.875 424.454 525.551 416.967C518.227 409.317 512.123 401.016 507.24 392.064C502.52 382.95 500.16 372.615 500.16 361.059C500.16 351.618 501.869 342.992 505.287 335.18C508.868 327.204 513.751 320.45 519.936 314.916C526.283 309.219 533.77 304.825 542.396 301.732C551.023 298.64 560.463 297.094 570.717 297.094C584.226 297.094 595.456 298.559 604.408 301.488C613.523 304.255 620.44 306.941 625.16 309.545L627.602 350.072Z" fill="#7065E6"/>
</svg>
